<?xml version="1.0" encoding="UTF-8" standalone="no"?><!DOCTYPE svg PUBLIC "-//W3C//DTD SVG 1.1//EN"
        "http://www.w3.org/Graphics/SVG/1.1/DTD/svg11.dtd">
<svg width="100%" height="100%" viewBox="0 0 200 175" version="1.1" xmlns="http://www.w3.org/2000/svg"
     xml:space="preserve"
     style="fill-rule:evenodd;clip-rule:evenodd;stroke-linecap:round;stroke-linejoin:round;stroke-miterlimit:2;"><g id="account"><path d="M116.667,54.167l-33.334,-0c-2.3,-0 -4.166,-1.867 -4.166,-4.167l-0,-33.333c-0,-6.905 5.596,-12.5 12.5,-12.5l16.666,-0c6.904,-0 12.5,5.595 12.5,12.5l0,33.333c0,2.3 -1.866,4.167 -4.166,4.167Z" style="fill:none;stroke:#505056;stroke-width:8.33px;"/><path
        d="M120.833,37.5l62.5,0c6.904,0 12.5,5.596 12.5,12.5l0,108.333c0,6.904 -5.596,12.5 -12.5,12.5l-166.666,0c-6.904,0 -12.5,-5.596 -12.5,-12.5l-0,-108.333c-0,-6.904 5.596,-12.5 12.5,-12.5l62.5,0"
        style="fill:none;stroke:#505056;stroke-width:8.33px;"/><path d="M29.167,91.667l50,-0"
                                                                     style="fill:none;stroke:#505056;stroke-width:8.33px;"/><path
        d="M29.167,116.667l25,-0" style="fill:none;stroke:#505056;stroke-width:8.33px;"/><path
        d="M154.167,87.5c-0,-9.204 -7.463,-16.667 -16.667,-16.667c-9.204,0 -16.667,7.463 -16.667,16.667c0,9.204 7.463,16.667 16.667,16.667c9.204,-0 16.667,-7.463 16.667,-16.667Z"
        style="fill:none;stroke:#505056;stroke-width:8.33px;"/><path
        d="M112.5,141.667l0,-16.667c0,-4.604 3.729,-8.333 8.333,-8.333l33.334,-0c4.604,-0 8.333,3.729 8.333,8.333l0,16.667"
        style="fill:none;stroke:#505056;stroke-width:8.33px;"/></g></svg>