<?xml version="1.0" encoding="UTF-8" standalone="no"?><!DOCTYPE svg PUBLIC "-//W3C//DTD SVG 1.1//EN" "http://www.w3.org/Graphics/SVG/1.1/DTD/svg11.dtd"><svg width="100%" height="100%" viewBox="0 0 150 200" version="1.1" xmlns="http://www.w3.org/2000/svg" xmlns:xlink="http://www.w3.org/1999/xlink" xml:space="preserve" xmlns:serif="http://www.serif.com/" style="fill-rule:evenodd;clip-rule:evenodd;stroke-linecap:round;stroke-linejoin:round;stroke-miterlimit:2;">
    <g id="location">
    <path d="M83.333,38.708c-2.641,-0.787 -5.437,-1.208 -8.333,-1.208c-16.108,0 -29.167,13.058 -29.167,29.167c0,16.108 13.059,29.166 29.167,29.166c16.108,0 29.167,-13.058 29.167,-29.166c-0,-1.417 -0.1,-2.805 -0.296,-4.167" style="fill:none;stroke:#505056;stroke-width:8.33px;"/><path d="M137.5,66.667c0,-34.517 -27.983,-62.5 -62.5,-62.5c-34.517,-0 -62.5,27.983 -62.5,62.5c0,54.166 62.5,104.166 62.5,104.166c0,0 62.5,-50 62.5,-104.166Z" style="fill:none;stroke:#505056;stroke-width:8.33px;"/><path d="M119.762,162.5c15.913,3.442 26.071,8.683 26.071,14.554c0,10.371 -31.712,18.779 -70.833,18.779c-39.121,0 -70.833,-8.408 -70.833,-18.779c-0,-5.871 10.158,-11.112 26.071,-14.554" style="fill:none;stroke:#505056;stroke-width:8.33px;"/>
</g></svg>