<?xml version="1.0" encoding="UTF-8" standalone="no"?><!DOCTYPE svg PUBLIC "-//W3C//DTD SVG 1.1//EN"
        "http://www.w3.org/Graphics/SVG/1.1/DTD/svg11.dtd">
<svg width="100%" height="100%" viewBox="0 0 217 217" version="1.1" xmlns="http://www.w3.org/2000/svg"
     xml:space="preserve"
     style="fill-rule:evenodd;clip-rule:evenodd;stroke-linecap:round;stroke-miterlimit:2;"><g id="mail"><path d="M108.333,183.333l54.167,0" style="fill:none;stroke:#505056;stroke-width:8.33px;"/><path
        d="M175,183.333l8.333,0" style="fill:none;stroke:#505056;stroke-width:8.33px;"/><path d="M200,162.5l-54.167,0"
                                                                                              style="fill:none;stroke:#505056;stroke-width:8.33px;"/><path
        d="M179.167,141.667l-45.834,-0" style="fill:none;stroke:#505056;stroke-width:8.33px;"/><path
        d="M79.167,54.167l-45.834,-0" style="fill:none;stroke:#505056;stroke-width:8.33px;"/><path d="M16.667,75l50,0"
                                                                                                   style="fill:none;stroke:#505056;stroke-width:8.33px;"/><path
        d="M62.5,54.167l0,-33.334c0,-4.6 3.729,-8.333 8.333,-8.333l125,0c4.604,0 8.334,3.733 8.334,8.333l-0,91.667c-0,4.604 -3.73,8.333 -8.334,8.333l-41.666,0"
        style="fill:none;stroke:#505056;stroke-width:8.33px;"/><path
        d="M154.167,187.5l-0,8.333c-0,4.605 -3.73,8.334 -8.334,8.334l-125,-0c-4.604,-0 -8.333,-3.729 -8.333,-8.334l0,-91.666c0,-4.6 3.729,-8.334 8.333,-8.334l125,0c4.604,0 8.334,3.734 8.334,8.334l-0,37.5"
        style="fill:none;stroke:#505056;stroke-width:8.33px;"/><path d="M91.667,39.583l41.666,31.25l50,-37.5"
                                                                     style="fill:none;stroke:#505056;stroke-width:8.33px;stroke-linejoin:round;"/><path
        d="M33.333,116.667l50,37.5l41.667,-31.25"
        style="fill:none;stroke:#505056;stroke-width:8.33px;stroke-linejoin:round;"/></g></svg>