<svg width="104" height="142" viewBox="0 0 104 142" fill="none" xmlns="http://www.w3.org/2000/svg">
<path d="M96.25 19.4375C98.1142 19.4354 99.9014 18.6939 101.22 17.3758C102.538 16.0576 103.279 14.2704 103.281 12.4062V0.6875H93.9062V10.0625H42.3438C40.4796 10.0646 38.6924 10.8061 37.3742 12.1242C36.0561 13.4424 35.3146 15.2296 35.3125 17.0938V28.8125H26.1206C19.2368 28.8203 12.6372 31.5583 7.7696 36.4258C2.90202 41.2934 0.164004 47.8931 0.15625 54.7769V101.636C0.15625 123.514 17.955 141.312 39.8327 141.312H40.1673C62.045 141.312 79.8438 123.514 79.8438 101.636V54.7769C79.836 47.8931 77.098 41.2934 72.2304 36.4258C67.3628 31.5583 60.7632 28.8203 53.8794 28.8125H44.6875V19.4375H96.25ZM9.53125 54.7769C9.53621 50.3786 11.2856 46.1619 14.3956 43.0519C17.5057 39.9419 21.7224 38.1925 26.1206 38.1875H35.3125V63.9688H9.53125V54.7769ZM70.4688 101.636C70.4598 109.67 67.2644 117.372 61.5837 123.052C55.903 128.733 48.201 131.929 40.1673 131.938H39.8327C31.799 131.929 24.097 128.733 18.4163 123.052C12.7356 117.372 9.54025 109.67 9.53125 101.636V73.3438H70.4688V101.636ZM53.8794 38.1875C58.2776 38.1925 62.4943 39.9419 65.6044 43.0519C68.7144 46.1619 70.4638 50.3786 70.4688 54.7769V63.9688H44.6875V38.1875H53.8794Z" fill="#4A5B69"/>
</svg>
