<svg width="50" height="50" viewBox="0 0 50 50" fill="none" xmlns="http://www.w3.org/2000/svg">
<path fill-rule="evenodd" clip-rule="evenodd" d="M23.3333 15C23.3333 11.0218 24.9137 7.20644 27.7267 4.3934C30.5398 1.58035 34.3551 0 38.3333 0L50 0V11.6667C50 15.6449 48.4196 19.4602 45.6066 22.2733C42.7936 25.0863 38.9782 26.6667 35 26.6667H26.6667V50H23.3333V36.6667H15C11.0218 36.6667 7.20644 35.0863 4.3934 32.2733C1.58035 29.4602 0 25.6449 0 21.6667L0 10H11.6667C16.38 10 20.5833 12.1733 23.3333 15.57V15ZM27.1533 20.4867L37.1533 10.4867L39.5133 12.8467L29.5133 22.8467L27.1533 20.4867ZM20.4867 32.8467L10.4867 22.8467L12.8467 20.4867L22.8467 30.4867L20.4867 32.8467Z" fill="#256D1B"/>
</svg>
