<svg width="71" height="100" viewBox="0 0 71 100" fill="none" xmlns="http://www.w3.org/2000/svg">
<g clip-path="url(#clip0_4_28)">
<path d="M0.00109863 65.7895C0.00109863 64.879 0.450799 63.6798 1.3502 62.1919C2.2496 60.704 3.11014 59.4715 3.93181 58.4943C4.15389 58.2278 4.43148 57.9003 4.76459 57.5117C5.0977 57.123 5.28646 56.9065 5.33088 56.8621L6.63001 58.3944C7.60714 59.4826 8.50654 60.7484 9.32821 62.1919C10.1499 63.6354 10.5607 64.8346 10.5607 65.7895C10.5607 67.2552 10.0555 68.5099 9.04507 69.5536C8.03463 70.5974 6.79657 71.1193 5.33088 71.1193C3.86519 71.1193 2.61047 70.5974 1.56672 69.5536C0.522973 68.5099 0.00109863 67.2552 0.00109863 65.7895ZM11.0937 80.5463C11.0937 79.5248 11.3824 78.3311 11.9598 76.9654C12.5372 75.5996 13.2478 74.3393 14.0917 73.1845C15.7128 71.0082 17.2674 69.1983 18.7553 67.7548C18.9107 67.6438 19.2216 67.3551 19.688 66.8887L20.5874 67.7548C21.9642 69.0651 23.5299 70.8639 25.2842 73.1512C26.1947 74.3726 26.9331 75.6496 27.4994 76.982C28.0657 78.3145 28.3489 79.5026 28.3489 80.5463C28.3489 82.9891 27.5161 85.0378 25.8505 86.6922C24.185 88.3467 22.1308 89.1739 19.688 89.1739C17.2896 89.1739 15.2576 88.33 13.592 86.6422C11.9265 84.9545 11.0937 82.9225 11.0937 80.5463ZM16.4901 56.0293C16.4901 54.497 17.6782 52.4872 20.0544 50L20.9538 50.9993C21.62 51.7766 22.2196 52.6482 22.7526 53.6143C23.2856 54.5803 23.5521 55.3853 23.5521 56.0293C23.5521 57.0064 23.2134 57.8226 22.5361 58.4777C21.8587 59.1328 21.0315 59.4604 20.0544 59.4604C19.0329 59.4604 18.1834 59.1328 17.5061 58.4777C16.8288 57.8226 16.4901 57.0064 16.4901 56.0293Z" fill="#FEFEFE"/>
</g>
<g clip-path="url(#clip1_4_28)">
<path d="M14.0022 31.5789C14.0022 29.7579 14.9016 27.3595 16.7004 24.3837C18.4992 21.4079 20.2203 18.9429 21.8636 16.9887C22.3078 16.4557 22.863 15.8006 23.5292 15.0233C24.1954 14.2461 24.5729 13.813 24.6618 13.7242L27.26 16.7888C29.2143 18.9651 31.0131 21.4968 32.6564 24.3837C34.2998 27.2707 35.1215 29.6691 35.1215 31.5789C35.1215 34.5103 34.111 37.0198 32.0901 39.1073C30.0693 41.1948 27.5931 42.2385 24.6618 42.2385C21.7304 42.2385 19.2209 41.1948 17.1334 39.1073C15.0459 37.0198 14.0022 34.5103 14.0022 31.5789ZM36.1874 61.0926C36.1874 59.0495 36.7648 56.6622 37.9196 53.9307C39.0744 51.1992 40.4956 48.6787 42.1834 46.3691C45.4257 42.0164 48.5347 38.3966 51.5105 35.5097C51.8214 35.2876 52.4432 34.7102 53.3759 33.7775L55.1747 35.5097C57.9285 38.1301 61.0597 41.7277 64.5685 46.3025C66.3895 48.7453 67.8663 51.2991 68.9989 53.964C70.1314 56.6289 70.6977 59.0051 70.6977 61.0926C70.6977 65.9782 69.0322 70.0755 65.7011 73.3844C62.3699 76.6933 58.2616 78.3478 53.3759 78.3478C48.5791 78.3478 44.5152 76.66 41.1841 73.2845C37.853 69.909 36.1874 65.845 36.1874 61.0926ZM46.9802 12.0586C46.9802 8.994 49.3564 4.97446 54.1088 0L55.9076 1.99867C57.24 3.55319 58.4392 5.29647 59.5052 7.22851C60.5712 9.16056 61.1041 10.7706 61.1041 12.0586C61.1041 14.0129 60.4268 15.6451 59.0721 16.9554C57.7175 18.2656 56.063 18.9207 54.1088 18.9207C52.0657 18.9207 50.3668 18.2656 49.0122 16.9554C47.6575 15.6451 46.9802 14.0129 46.9802 12.0586Z" fill="#FEFEFE"/>
</g>
<defs>
<clipPath id="clip0_4_28">
<rect width="28.35" height="50" fill="white" transform="translate(0 50)"/>
</clipPath>
<clipPath id="clip1_4_28">
<rect width="56.7" height="100" fill="white" transform="translate(14)"/>
</clipPath>
</defs>
</svg>
