<?xml version="1.0" encoding="UTF-8" standalone="no"?>
<!DOCTYPE svg PUBLIC "-//W3C//DTD SVG 1.1//EN" "http://www.w3.org/Graphics/SVG/1.1/DTD/svg11.dtd">
<svg width="100%" height="100%" viewBox="0 0 64 55" version="1.1" xmlns="http://www.w3.org/2000/svg" xmlns:xlink="http://www.w3.org/1999/xlink" xml:space="preserve" xmlns:serif="http://www.serif.com/" style="fill-rule:evenodd;clip-rule:evenodd;stroke-linecap:round;stroke-linejoin:round;stroke-miterlimit:2;">
    <g transform="matrix(1,0,0,1,-296,-125)">
        <g>
            <path d="M345.185,161.382C345.302,170.873 337.491,178.568 328,178.568C318.509,178.568 310.789,170.874 310.815,161.382C310.846,150.369 325.979,138.131 328,126C330.021,138.131 345.051,150.515 345.185,161.382Z" style="fill:none;stroke:rgb(51,51,51);stroke-width:2px;"/>
            <path d="M307.149,162.279C301.411,161.472 296.983,156.504 297,150.496C297.021,142.871 307.406,134.398 308.794,126C309.602,130.892 313.438,135.842 316.519,140.61" style="fill:none;stroke:rgb(51,51,51);stroke-width:2px;"/>
            <path d="M348.851,162.279C354.589,161.472 359.017,156.504 359,150.496C358.979,142.871 348.594,134.398 347.206,126C346.398,130.892 342.563,135.842 339.481,140.61" style="fill:none;stroke:rgb(51,51,51);stroke-width:2px;"/>
            <path d="M341.142,161.382C341.142,168.641 335.258,174.524 328,174.524" style="fill:none;stroke:rgb(51,51,51);stroke-width:2px;"/>
        </g>
    </g>
</svg>
